<svg width="100" height="100" viewBox="0 0 100 100" fill="none" xmlns="http://www.w3.org/2000/svg">
    <!-- El Hexágono Redondeado Base (Cuerpo oscuro) -->
    <path d="M46.1013 7.82081C48.5103 6.43003 51.4897 6.43003 53.8987 7.82081L88.2269 27.6397C90.6359 29.0305 92.1256 31.611 92.1256 34.3926V74.0305C92.1256 76.8122 90.6359 79.3926 88.2269 80.7834L53.8987 100.602C51.4897 101.993 48.5103 101.993 46.1013 100.602L11.7731 80.7834C9.3641 79.3926 7.87439 76.8122 7.87439 74.0305V34.3926C7.87439 31.611 9.3641 29.0305 11.7731 27.6397L46.1013 7.82081Z" fill="#041E62"/>
    
    <!-- Mitad Superior Izquierda (Azul cobalto vibrante) con el corte diagonal exacto -->
    <clipPath id="diagonal_cut">
        <path d="M0 0L100 0L100 45L0 85Z" />
    </clipPath>
    <path d="M46.1013 7.82081C48.5103 6.43003 51.4897 6.43003 53.8987 7.82081L88.2269 27.6397C90.6359 29.0305 92.1256 31.611 92.1256 34.3926V74.0305C92.1256 76.8122 90.6359 79.3926 88.2269 80.7834L53.8987 100.602C51.4897 101.993 48.5103 101.993 46.1013 100.602L11.7731 80.7834C9.3641 79.3926 7.87439 76.8122 7.87439 74.0305V34.3926C7.87439 31.611 9.3641 29.0305 11.7731 27.6397L46.1013 7.82081Z" fill="#1E4CB8" clip-path="url(#diagonal_cut)"/>
    
    <!-- Sutil reflejo de luz en la parte superior izquierda -->
    <path d="M22 35C22 32 25 28 32 26" stroke="#60A5FA" stroke-width="2.5" stroke-linecap="round" opacity="0.4"/>
</svg>
